:FULLY-SPECIFIED
:FORCE-ALL-JOINTS-BE-3DOF
:DEGREES
917
root 2.74942 16.224 32.4387 2.38572 10.8009 2.28004
lfemur -13.3035 -2.21503 1.77257
ltibia 27.1077 -0 0
lfoot 3.83963 -45.4023 -0.515555
ltoes 21.7177 -0 0
rfemur -16.8996 -1.75219 -8.28292
rtibia 38.9174 -0 0
rfoot 10.9712 -13.29 0.0173513
rtoes -24.6568 0 0
lowerback -0.647446 0.199039 -2.83361
upperback -0.802787 0.273336 -4.74527
thorax -0.45018 0.140278 -3.28901
lowerneck -7.16557 -5.3232 -1.4164
upperneck 4.24589 -7.35732 6.01201
head 2.93721 -3.47745 1.84453
lclavicle -0 0 0
lhumerus -51.2913 -35.6874 107.916
lradius 59.1095 -0 0
lwrist 13.3936 0 0
lhand 38.1378 21.1413 0.0561853
lfingers 0 -0 0
lthumb 60.8007 33.7921 -0.00481288
rclavicle -0 0 0
rhumerus -60.843 33.5321 -105.122
rradius 118.027 -0 0
rwrist 4.17323 0 0
rhand 0.727041 -10.4448 0.0236185
rfingers 0 -0 0
rthumb 26.2838 -38.6136 0.0317553
918
root 2.6693 16.1999 32.4883 2.71119 10.0685 362.356
lfemur -12.1913 -4.74532 2.98986
ltibia 24.1545 0 0
lfoot 6.3176 -49.2971 0
ltoes 25.5092 0 0
rfemur -16.7793 -0.726183 -8.5435
rtibia 37.4309 0 0
rfoot 11.2351 -12.0362 0
rtoes -32.5507 0 0
lowerback -1.06021 0.238764 -2.8244
upperback -0.926272 0.340902 -4.96828
thorax -0.342851 0.175228 -3.52479
lowerneck -7.20318 -5.10291 -1.31193
upperneck 4.24975 -7.07818 6.09653
head 2.93345 -3.3335 1.86854
lclavicle -1.1208e-14 0 0
lhumerus -51.3079 -35.6989 107.644
lradius 59.1404 0 0
lwrist 13.5778 0 0
lhand 39.3467 22.0271 0
lfingers 7.12502 0 0
lthumb 61.8515 33.7047 0
rclavicle -1.1208e-14 0 0
rhumerus -62.2032 34.529 -104.699
rradius 118.296 0 0
rwrist 5.66647 0 0
rhand 1.94218 -10.0741 0
rfingers 7.12502 0 0
rthumb 27.4493 -758.094 0
919
root 2.59299 16.1541 32.5234 2.96964 9.18319 2.713
lfemur -10.6035 -4.97035 2.98738
ltibia 21.7791 -0 0
lfoot 4.38313 -48.8705 -0.0433648
ltoes 23.7403 -0 0
rfemur -17.4025 -0.966826 -8.902
rtibia 37.7948 -0 0
rfoot 9.6711 -11.416 -0.0509172
rtoes -34.5292 0 0
lowerback -1.37084 0.136314 -2.80351
upperback -0.997529 0.221425 -5.29007
thorax -0.249564 0.111369 -3.87965
lowerneck -7.18431 -4.69296 -1.0917
upperneck 4.19732 -6.54473 6.0644
head 2.88275 -3.06746 1.84601
lclavicle -0 0 0
lhumerus -51.6242 -36.0876 107.471
lradius 58.9491 -0 0
lwrist 14.2314 0 0
lhand 40.0279 22.8116 0.0280056
lfingers 0 -0 0
lthumb 62.4023 33.6718 -0.000950547
rclavicle -0 0 0
rhumerus -61.8703 36.4316 -100.818
rradius 117.783 -0 0
rwrist 4.04886 0 0
rhand 4.92539 -10.1341 -0.00944736
rfingers 0 -0 0
rthumb 30.2636 -37.384 0.10543
920
root 2.51668 16.1084 32.5584 3.2219 8.29632 3.06511
lfemur -9.01513 -5.19522 2.97865
ltibia 19.4037 -0 0
lfoot 2.44839 -48.4427 -0.0723034
ltoes 21.9713 -0 0
rfemur -18.0243 -1.21135 -9.25789
rtibia 38.1587 -0 0
rfoot 8.10663 -10.7947 -0.0848864
rtoes -36.5078 0 0
lowerback -1.68151 0.0339787 -2.78206
upperback -1.06811 0.101549 -5.61172
thorax -0.155882 0.0480882 -4.23462
lowerneck -7.16387 -4.28309 -0.871467
upperneck 4.14464 -6.01131 6.03181
head 2.83197 -2.80144 1.82324
lclavicle -0 0 0
lhumerus -51.9405 -36.477 107.301
lradius 58.7579 -0 0
lwrist 14.8851 0 0
lhand 40.7093 23.5963 0.0466811
lfingers 0 -0 0
lthumb 62.9531 33.6388 -0.00158429
rclavicle -0 0 0
rhumerus -61.3656 38.3112 -96.8232
rradius 117.271 -0 0
rwrist 2.43124 0 0
rhand 7.90861 -10.1945 -0.0157599
rfingers 0 -0 0
rthumb 33.0789 -36.6698 0.175868
921
root 2.44037 16.0626 32.5935 3.46812 7.40795 3.41254
lfemur -7.42615 -5.41977 2.96365
ltibia 17.0283 -0 0
lfoot 0.51348 -48.0141 -0.0867814
ltoes 20.2024 -0 0
rfemur -18.6446 -1.45972 -9.61115
rtibia 38.5226 -0 0
rfoot 6.54189 -10.1727 -0.101878
rtoes -38.4863 0 0
lowerback -1.99222 -0.0682388 -2.76005
upperback -1.13802 -0.0187202 -5.93321
thorax -0.0618112 -0.0146104 -4.58969
lowerneck -7.14186 -3.8733 -0.651196
upperneck 4.0917 -5.47792 5.99876
head 2.78108 -2.53544 1.80025
lclavicle -0 0 0
lhumerus -52.2571 -36.8672 107.132
lradius 58.5666 -0 0
lwrist 15.5387 0 0
lhand 41.391 24.3812 0.0560204
lfingers 0 -0 0
lthumb 63.5039 33.6058 -0.00190118
rclavicle -0 0 0
rhumerus -60.6773 40.1576 -92.6997
rradius 116.758 -0 0
rwrist 0.813631 0 0
rhand 10.8918 -10.2551 -0.0189204
rfingers 0 -0 0
rthumb 35.895 -35.9529 0.211132
922
root 2.36406 16.0169 32.6285 3.70845 6.51813 3.75546
lfemur -5.83651 -5.64381 2.9424
ltibia 14.653 -0 0
lfoot -1.42148 -47.5854 -0.0867814
ltoes 18.4334 -0 0
rfemur -19.2635 -1.71189 -9.96173
rtibia 38.8864 -0 0
rfoot 4.97705 -9.55047 -0.101878
rtoes -40.4649 0 0
lowerback -2.30297 -0.170335 -2.73749
upperback -1.20726 -0.13938 -6.25456
thorax 0.0326469 -0.0767248 -4.94487
lowerneck -7.11828 -3.4636 -0.430867
upperneck 4.03851 -4.94456 5.96525
head 2.7301 -2.26946 1.77702
lclavicle -0 0 0
lhumerus -52.5738 -37.2581 106.964
lradius 58.3753 -0 0
lwrist 16.1924 0 0
lhand 42.0727 25.1662 0.0560204
lfingers 0 -0 0
lthumb 64.0548 33.5729 -0.00190118
rclavicle -0 0 0
rhumerus -59.793 41.9601 -88.4306
rradius 116.246 -0 0
rwrist -0.803981 0 0
rhand 13.8751 -10.3159 -0.0189204
rfingers 0 -0 0
rthumb 38.7112 -35.2351 0.211132
923
root 2.28775 15.9711 32.6636 3.94302 5.6269 4.09405
lfemur -4.24616 -5.86719 2.91489
ltibia 12.2776 -0 0
lfoot -3.35639 -47.1568 -0.0723034
ltoes 16.6645 -0 0
rfemur -19.8808 -1.96782 -10.3096
rtibia 39.2503 -0 0
rfoot 3.41231 -8.92846 -0.0848864
rtoes -42.4434 0 0
lowerback -2.61376 -0.272308 -2.71438
upperback -1.27581 -0.260426 -6.57576
thorax 0.127488 -0.138252 -5.30014
lowerneck -7.09314 -3.05399 -0.21046
upperneck 3.98503 -4.41123 5.93126
head 2.67902 -2.0035 1.75356
lclavicle -0 0 0
lhumerus -52.8907 -37.6497 106.799
lradius 58.184 -0 0
lwrist 16.846 0 0
lhand 42.7544 25.9511 0.0466811
lfingers 0 -0 0
lthumb 64.6056 33.5399 -0.00158429
rclavicle -0 0 0
rhumerus -58.6999 43.7069 -83.9993
rradius 115.733 -0 0
rwrist -2.42159 0 0
rhand 16.8583 -10.3765 -0.0157599
rfingers 0 -0 0
rthumb 41.5273 -34.5182 0.175868
924
root 2.21144 15.9254 32.6986 4.17198 4.73431 4.42851
lfemur -2.65506 -6.08971 2.88116
ltibia 9.90219 -0 0
lfoot -5.29113 -46.729 -0.0433648
ltoes 14.8955 -0 0
rfemur -20.4968 -2.22749 -10.6548
rtibia 39.6142 -0 0
rfoot 1.84784 -8.30715 -0.0509172
rtoes -44.422 0 0
lowerback -2.9246 -0.374154 -2.69072
upperback -1.34369 -0.381855 -6.89683
thorax 0.22271 -0.199191 -5.65552
lowerneck -7.06642 -2.64447 0.0100491
upperneck 3.93128 -3.87793 5.89679
head 2.62784 -1.73757 1.72987
lclavicle -0 0 0
lhumerus -53.2079 -38.0421 106.636
lradius 57.9928 -0 0
lwrist 17.4997 0 0
lhand 43.4358 26.7358 0.0280056
lfingers 0 -0 0
lthumb 65.1564 33.5069 -0.000950547
rclavicle -0 0 0
rhumerus -57.3855 45.3851 -79.389
rradius 115.221 -0 0
rwrist -4.03921 0 0
rhand 19.8415 -10.4369 -0.00944736
rfingers 0 -0 0
rthumb 44.3426 -33.804 0.10543
925
root 2.13513 15.8796 32.7337 4.39544 3.84042 364.759
lfemur -1.06315 -6.31122 2.8412
ltibia 7.52681 0 0
lfoot -7.2256 -46.3024 0
ltoes 13.1266 0 0
rfemur -21.1112 -2.49084 -10.9972
rtibia 39.9781 0 0
rfoot 0.283837 -7.68699 0
rtoes -46.4005 0 0
lowerback -3.23548 -0.47587 -2.6665
upperback -1.41089 -0.503662 -7.21775
thorax 0.318308 -0.259537 -6.011
lowerneck -7.03814 -2.23507 0.230682
upperneck 3.87724 -3.34467 5.86185
head 2.57656 -1.47165 1.70594
lclavicle -1.85118e-15 0 0
lhumerus -53.5254 -38.4352 106.474
lradius 57.8015 0 0
lwrist 18.1533 0 0
lhand 44.117 27.5203 0
lfingers 7.12502 0 0
lthumb 65.7072 33.474 0
rclavicle -1.85118e-15 0 0
rhumerus -55.8381 46.9807 -74.5842
rradius 114.708 0 0
rwrist -5.65682 0 0
rhand 22.8247 -10.4969 0
rfingers 7.12502 0 0
rthumb 47.1569 -753.094 0
926
root 2.07496 15.8391 32.7421 4.51075 3.08582 4.94887
lfemur -0.229019 -5.60069 2.5351
ltibia 7.05832 -0 0
lfoot -10.2864 -43.4168 -0.47018
ltoes 7.88269 -0 0
rfemur -22.0383 -3.08227 -11.0438
rtibia 40.8208 -0 0
rfoot -1.0319 -7.13826 -0.0378737
rtoes -46.2584 0 0
lowerback -3.27862 -0.54545 -2.55358
upperback -1.40287 -0.597985 -7.3507
thorax 0.33765 -0.308875 -6.22384
lowerneck -7.07689 -1.90371 0.52841
upperneck 3.74571 -2.91168 5.6829
head 2.5215 -1.26059 1.61298
lclavicle -0 0 0
lhumerus -54.0288 -38.9884 106.71
lradius 57.6997 -0 0
lwrist 19.3126 0 0
lhand 43.8023 27.7371 -0.00357261
lfingers 0 -0 0
lthumb 65.4579 34.0997 -0.00817252
rclavicle -0 0 0
rhumerus -51.4236 48.1076 -67.844
rradius 110.834 -0 0
rwrist -7.03043 0 0
rhand 22.4581 -10.8219 0.00623919
rfingers 0 -0 0
rthumb 46.8168 -33.5604 0.00830744
